<?xml version="1.0" standalone="no"?>
<!DOCTYPE svg PUBLIC "-//W3C//DTD SVG 20010904//EN"
 "http://www.w3.org/TR/2001/REC-SVG-20010904/DTD/svg10.dtd">
<svg version="1.0" xmlns="http://www.w3.org/2000/svg"
 width="512.000000pt" height="512.000000pt" viewBox="0 0 512.000000 512.000000"
 preserveAspectRatio="xMidYMid meet">
<metadata>
Created by potrace 1.14, written by Peter Selinger 2001-2017
</metadata>
<g transform="translate(0.000000,512.000000) scale(0.100000,-0.100000)"
fill="#000000" stroke="none">
<path d="M3180 5110 c-337 -42 -605 -155 -855 -360 -95 -78 -257 -247 -333
-347 -163 -214 -315 -511 -411 -797 l-60 -180 -143 -2 c-183 -3 -304 -28 -387
-78 -111 -68 -174 -163 -175 -266 -1 -111 66 -192 202 -244 109 -42 128 -96
66 -186 -54 -79 -74 -128 -74 -189 0 -122 93 -222 257 -275 59 -20 93 -55 93
-97 0 -15 -17 -60 -37 -100 -34 -65 -38 -79 -38 -148 1 -89 22 -138 81 -191
48 -42 102 -65 184 -80 118 -22 143 -32 163 -68 17 -29 18 -40 8 -89 -27 -138
-6 -266 57 -335 64 -71 143 -86 244 -48 l53 19 -39 -32 c-140 -115 -524 -362
-769 -495 l-148 -80 28 -19 c62 -44 230 -137 326 -183 149 -69 302 -123 470
-165 170 -43 160 -43 405 21 436 113 817 317 1032 551 127 139 208 286 261
472 65 233 78 356 89 851 9 417 16 485 64 630 13 41 27 82 31 91 5 14 -9 17
-107 22 -141 7 -277 41 -402 100 -130 62 -208 117 -301 212 -279 285 -323 692
-110 1020 58 89 207 232 303 289 289 173 657 205 981 87 146 -53 270 -132 377
-238 l47 -47 -6 129 c-6 156 -24 230 -85 355 -39 81 -59 108 -137 185 -49 50
-116 105 -147 123 -137 81 -313 139 -508 167 -128 19 -448 27 -550 15z"/>
<path d="M3720 4179 c-84 -34 -122 -130 -82 -209 70 -140 282 -85 282 74 l0
39 -23 -21 c-33 -31 -80 -29 -106 4 -26 33 -27 68 -2 93 11 11 17 22 14 25 -9
9 -55 6 -83 -5z"/>
<path d="M4392 3470 c-12 -22 -52 -79 -89 -127 -36 -49 -67 -93 -70 -99 -3 -8
21 -16 66 -24 78 -13 141 -4 215 29 47 21 126 87 126 105 0 26 -63 85 -128
119 -39 21 -76 37 -83 37 -8 0 -24 -18 -37 -40z"/>
<path d="M330 2934 c-58 -53 -156 -146 -217 -208 l-113 -111 0 -90 c0 -224 48
-518 121 -743 102 -314 239 -568 447 -829 79 -99 270 -296 325 -335 l28 -20 6
23 c4 13 29 68 56 121 38 76 47 104 42 127 -9 43 -43 68 -118 85 -130 30 -241
108 -273 192 -14 37 -15 53 -5 101 12 63 61 157 123 240 74 97 54 160 -62 202
-207 76 -285 248 -210 467 11 32 20 66 20 76 0 34 -27 73 -68 96 -22 12 -61
45 -86 73 -126 140 -105 371 51 572 24 31 43 57 41 57 -2 0 -50 -44 -108 -96z"/>
</g>
</svg>
